<svg xmlns="http://www.w3.org/2000/svg" viewBox="0 0 1451.19 1451.16"><defs><style>.cls-1{fill:#d6d6d6;}</style></defs><g id="Camada_2" data-name="Camada 2"><g id="Objects"><path class="cls-1" d="M1451.19,1000.47q-.06-300.94-.13-601.9a449.35,449.35,0,0,0-4.36-64.73C1422.09,148.57,1251.45-1.61,1064.11.44Q732.67,0,401.21.35C188.84-9.2-2.8,175.69.17,388.41c-.5,223.28.41,446.51-.09,669.78-4.54,212.16,181.68,398,393.8,392.87q326.68-.09,653.35,0c29.54,0,58.83-1.74,87.92-7.36,156.08-28.51,283.92-160,310.15-316.21,7.23-40.13,5.92-80.63,5.57-121.1C1451,1004.45,1451.19,1002.46,1451.19,1000.47Zm-125.38,56.14c4.39,146-124.87,274.52-270.81,269.11q-291.71-.09-583.4,0c-33.49,0-67,.78-100.47-.6-14.33-.59-28.31-4-42.45-6.27a141.14,141.14,0,0,1-36.36-11c-97.47-40.94-168-139.25-166.82-246.24-.16-116,.2-232-.22-347.94.64-108.12-.07-216.28.26-324.41.07-57.35,17.81-109,51.58-155.14,48.3-66.57,128.22-108.57,210.71-108.66q338.16-.1,676.34.11c141.11-1.89,264.51,125.15,261.63,265.76Q1325.65,723.95,1325.81,1056.61Z" transform="translate(0)"/><path class="cls-1" d="M1034.78,535.44c-147.78-250.7-514.24-244-652.43,12-1.17,1.13-1.33,2.81-2.12,4.18a53.12,53.12,0,0,0-5.7,12.69c-1.78.82-2.32,2.47-2.79,4.16l-.51,1.53a172,172,0,0,0-12.65,31.46l-.57,1.5a65.62,65.62,0,0,0-4.4,13.32h0c-.16.6-.33,1.2-.49,1.8a3.24,3.24,0,0,0-.8,2.63c-55.88,180.53,43.87,385.15,220.25,452.78,153.64,64,343.34,10.61,440.14-125a139.44,139.44,0,0,0,13.09-18.71C1103.45,814,1106.7,654.75,1034.78,535.44ZM958.88,760.5c-5,37.2-18.57,71.24-38.76,102.77l-1.79,3,.13.07-1,1.17s0,0,0-.07c-68.3,100.66-208.25,137.23-316.63,81.46C477.17,890.22,426,731.18,490,610.67a11.78,11.78,0,0,0,2.67-4.95l1.14-2.09C542.74,518,637.06,466.93,735.71,477.38,875.54,488.8,979.72,622.18,958.88,760.5Z" transform="translate(0)"/><path class="cls-1" d="M1111.84,242.54c-50.39,0-90.49,39.61-90.88,89.85,4.06,119.4,175.39,121,180.69,1.05C1201.7,282.73,1162,242.57,1111.84,242.54Z" transform="translate(0)"/></g></g></svg>