<svg xmlns="http://www.w3.org/2000/svg" viewBox="0 0 192.37 192.37"><defs><style>.cls-1{fill:#fff;}</style></defs><g id="Camada_2" data-name="Camada 2"><g id="Objects"><path class="cls-1" d="M35.35,32.13V21.74a96.07,96.07,0,0,0,0,148.9v-10.4c-2-1.85-3.82-3.8-5.59-5.82V44.13l5.59,11v-23ZM7.81,96.19A87.9,87.9,0,0,1,19.5,52.29v87.8A87.93,87.93,0,0,1,7.81,96.19Z"/><path class="cls-1" d="M153.49,29,101.22,131.66l5.61,11.07,50-98.6v9.48l10.93-21.45a.13.13,0,0,0,0-.17l-.07-.08A96,96,0,0,0,45.6,14.41v9.33A88.22,88.22,0,0,1,153.49,29Z"/><path class="cls-1" d="M174.48,40.37l-4,7.93a88.2,88.2,0,0,1-3.38,100.63V55.17L156.8,75.4v85A88.53,88.53,0,0,1,126,179.39l3.59,7a96.14,96.14,0,0,0,44.89-146Z"/><path class="cls-1" d="M96.18,184.57A87.92,87.92,0,0,1,45.6,168.63V178A96.23,96.23,0,0,0,120,189.39l-3.66-7.14A88.19,88.19,0,0,1,96.18,184.57Z"/><polygon class="cls-1" points="93.28 147.26 45.61 53.3 45.61 75.3 89.26 161.13 97.5 161.13 101.3 153.64 95.67 142.56 93.28 147.26"/></g></g></svg>